<svg width="562" height="118" viewBox="0 0 562 118" fill="none" xmlns="http://www.w3.org/2000/svg">
<g clip-path="url(#clip0_7532_34053)">
<path d="M74.6261 24.7253C69.9876 22.7665 64.8892 21.6871 59.531 21.6871C54.1727 21.6871 49.0743 22.7665 44.4358 24.7253L58.3013 0.709587C58.8412 -0.229856 60.2007 -0.229856 60.7406 0.709587L74.6161 24.7253H74.6261Z" fill="#F2F2F2"/>
<path d="M40.7468 26.5243C31.6098 31.5813 24.742 40.2162 22.0128 50.54L11.7061 24.2856C11.3063 23.2762 12.156 22.2168 13.2257 22.3767L40.7468 26.5243Z" fill="#F2F2F2"/>
<path d="M28.9906 84.4099L0.999611 75.7751C-0.0400563 75.4552 -0.33996 74.126 0.449787 73.3965L21.2431 54.1079C20.9032 56.1767 20.7233 58.3054 20.7233 60.4741C20.7233 69.5088 23.8123 77.8238 28.9906 84.4099Z" fill="#F2F2F2"/>
<path d="M58.951 99.2611L34.4089 115.981C33.5091 116.591 32.2895 116.011 32.2096 114.922L30.0203 85.6492C37.018 93.8443 47.3747 99.0812 58.951 99.2511V99.2611Z" fill="#F2F2F2"/>
<path d="M88.9513 85.7691L86.772 114.892C86.692 115.971 85.4724 116.561 84.5727 115.951L60.0806 99.2611C71.6269 99.1012 81.9536 93.9043 88.9513 85.7691Z" fill="#F2F2F2"/>
<path d="M118.042 75.6851L90.1711 84.28C95.2895 77.7139 98.3385 69.4488 98.3385 60.4741C98.3385 58.2754 98.1486 56.1167 97.7987 54.0179L118.582 73.2965C119.382 74.0361 119.072 75.3653 118.042 75.6751V75.6851Z" fill="#F2F2F2"/>
<path d="M107.355 24.3356L97.0588 50.58C94.3396 40.2661 87.4918 31.6412 78.3848 26.5642L105.836 22.4267C106.906 22.2668 107.755 23.3262 107.355 24.3356Z" fill="#F2F2F2"/>
<path d="M59.5307 107.636C53.8026 107.636 49.1641 112.273 49.1641 118H69.9074C69.9074 112.273 65.2689 107.636 59.5407 107.636H59.5307Z" fill="#F2F2F2"/>
<path d="M97.4388 90.6562C93.8699 95.1336 94.5997 101.66 99.0782 105.228L112.004 89.0172C107.526 85.4493 100.998 86.1789 97.4288 90.6562H97.4388Z" fill="#F2F2F2"/>
<path d="M105.936 50.57C107.206 56.1567 112.774 59.6446 118.352 58.3654L113.733 38.1474C108.145 39.4166 104.656 44.9833 105.936 50.56V50.57Z" fill="#F2F2F2"/>
<path d="M80.4942 18.8588C85.6525 21.3473 91.8505 19.1786 94.3397 14.0117L75.6557 5.01703C73.1665 10.174 75.3358 16.3703 80.5042 18.8588H80.4942Z" fill="#F2F2F2"/>
<path d="M38.0978 18.8588C43.2561 16.3703 45.4254 10.174 42.9362 5.01703L24.2522 14.0117C26.7414 19.1686 32.9394 21.3373 38.0978 18.8488V18.8588Z" fill="#F2F2F2"/>
<path d="M13.3958 50.57C14.6654 44.9833 11.1765 39.4266 5.58826 38.1574L0.979736 58.3754C6.56795 59.6446 12.1262 56.1567 13.3958 50.57Z" fill="#F2F2F2"/>
<path d="M8.49731 89.0172L21.4332 105.228C25.9117 101.66 26.6415 95.1336 23.0726 90.6562C19.5038 86.1789 12.9759 85.4493 8.49731 89.0172Z" fill="#F2F2F2"/>
<path d="M177.773 30.1321V59.8145H212.612V31.8511H228.487V98.4116H212.612V73.9661H177.773V98.4116H161.898V34.4196L177.773 30.1321Z" fill="#F2F2F2"/>
<path d="M257.227 84.25H305.792L301.503 98.4016H241.363V31.8411H305.802L301.513 45.9927H257.237V58.0856H298.504V72.2372H257.237V84.25H257.227Z" fill="#F2F2F2"/>
<path d="M331.274 31.8411V84.25H378.119L373.83 98.4016H315.399V31.8411H331.274Z" fill="#F2F2F2"/>
<path d="M400.861 31.8411V98.4016H384.987V31.8411H400.861Z" fill="#F2F2F2"/>
<path d="M467.44 31.8411H483.315V71.9873C483.315 91.3758 467.44 99.8608 446.937 99.8608C426.433 99.8608 411.668 90.7662 411.668 71.9873V34.4196L427.543 30.1321V71.9873C427.543 81.7615 434.061 85.4593 447.706 85.4593C461.352 85.4593 467.44 81.5117 467.44 71.9873V31.8411Z" fill="#F2F2F2"/>
<path d="M491.382 52.0891C491.382 41.8852 499.45 31.8411 515.235 31.8411H560.54L556.252 45.9927H515.405C510.516 45.9927 508.107 49.0809 508.107 52.0791C508.107 55.0773 510.596 58.0856 515.405 58.0856H538.397C553.922 58.0856 561.99 68.1196 561.99 78.3335C561.99 88.5475 554.352 98.4016 538.397 98.4016H491.382L495.671 84.25H538.227C543.036 84.25 545.525 81.4217 545.525 78.3335C545.525 75.2454 543.126 72.1572 538.227 72.1572H515.235C499.19 72.1572 491.382 62.1232 491.382 52.0891Z" fill="#F2F2F2"/>
</g>
<defs>
<clipPath id="clip0_7532_34053">
<rect width="562" height="118" fill="white"/>
</clipPath>
</defs>
</svg>
