<svg width="364" height="121" viewBox="0 0 364 121" fill="none" xmlns="http://www.w3.org/2000/svg">
<path d="M75.1408 119.343L68.144 120.275L67.1806 120.394C64.9264 120.657 62.6361 120.795 60.3174 120.802C57.9991 120.808 55.7087 120.682 53.4534 120.431L52.4881 120.316L45.4865 119.422L47.2758 105.417L54.2774 106.312L55.0156 106.4C56.741 106.592 58.4975 106.689 60.28 106.684C62.3175 106.679 64.3203 106.541 66.2807 106.28L73.2774 105.349L75.1408 119.343ZM23.8269 88.8272L24.2916 89.4188C26.4821 92.1601 28.9802 94.6452 31.7332 96.8211L32.3259 97.2826L37.9355 101.569L29.3628 112.786L23.7545 108.499L22.9785 107.897C19.3836 105.055 16.1227 101.81 13.2622 98.2307L12.6545 97.4592L8.33846 91.8736L19.5109 83.2416L23.8269 88.8272ZM112.143 91.5989L107.856 97.2072C104.675 101.37 100.961 105.103 96.816 108.306L91.2304 112.622L82.5985 101.451L88.184 97.1348C91.3586 94.6819 94.2034 91.822 96.6394 88.6345L100.926 83.0262L112.143 91.5989ZM0.158812 60.9606C0.151804 58.311 0.317466 55.6971 0.645257 53.1313L1.53989 46.1297L15.543 47.919L14.6484 54.9205C14.3977 56.8823 14.271 58.8858 14.2764 60.9232C14.2818 62.9607 14.4191 64.9635 14.6801 66.9239L15.6118 73.9206L1.61838 75.784L0.686696 68.7872L0.566109 67.8238C0.302992 65.5696 0.164949 63.2793 0.158812 60.9606ZM106.041 60.6803C106.036 58.8978 105.93 57.1419 105.729 55.4175L105.637 54.6797L104.705 47.683L118.7 45.8196L119.632 52.8163L119.751 53.7811C120.014 56.0349 120.152 58.3247 120.158 60.643C120.165 63.2926 120.001 65.9064 119.673 68.4723L118.779 75.4738L104.774 73.6846L105.669 66.683L105.756 65.946C105.949 64.2203 106.046 62.4633 106.041 60.6803ZM37.72 20.1541L32.1332 24.4701L31.5429 24.9347C28.6057 27.2817 25.9616 29.9808 23.6778 32.9691L19.3927 38.5787L8.17471 30.006L12.4611 24.3977L13.0648 23.6217C16.1091 19.7702 19.6161 16.3005 23.5025 13.2976L29.0881 8.98165L37.72 20.1541ZM96.564 13.1043L97.3387 13.708C100.934 16.5494 104.196 19.7931 107.056 23.3729L107.663 24.1457L111.979 29.7313L100.808 38.3632L96.4916 32.7763L96.027 32.1861C93.8365 29.4447 91.3382 26.9598 88.5853 24.7838L87.9913 24.321L82.383 20.0359L90.9557 8.8179L96.564 13.1043ZM59.9998 0.802004C62.3184 0.795866 64.6095 0.921785 66.8651 1.17296L67.8291 1.28845L74.8307 2.18308L73.0414 16.1862L66.0398 15.2915C64.0781 15.0409 62.0746 14.9142 60.0372 14.9196C57.9998 14.925 55.9969 15.0623 54.0365 15.3233L47.0398 16.255L45.1764 2.26157L52.1732 1.32989C54.7372 0.988519 57.3502 0.809023 59.9998 0.802004Z" fill="#F2F2F2"/>
<path d="M209.626 38.1784C218.001 38.1562 224.775 44.7405 224.797 52.9216L224.894 89.3777C224.915 97.5588 218.176 104.179 209.801 104.201L171.311 104.303C162.937 104.325 156.162 97.7408 156.14 89.5597L156.044 53.1036C156.022 44.9225 162.763 38.3024 171.136 38.2803L209.626 38.1784ZM171.168 50.5758C169.748 50.5796 168.625 51.7308 168.629 53.0703L168.725 89.5264C168.729 90.9139 169.908 92.0111 171.278 92.0074L209.769 91.9056C211.189 91.9018 212.312 90.7507 212.308 89.4111L212.212 52.9549C212.208 51.5676 211.031 50.4703 209.659 50.4739L171.168 50.5758Z" fill="#F2F2F2" stroke="#F2F2F2" stroke-width="0.254983" stroke-miterlimit="10"/>
<path d="M287.345 37.9711L287.378 50.2673L249.619 50.3673C248.2 50.371 247.075 51.5223 247.079 52.8619L247.215 104.105L234.629 104.138L234.493 52.9432C234.472 44.7615 241.213 38.141 249.587 38.1188L287.345 38.0189L287.345 37.9711Z" fill="#F2F2F2" stroke="#F2F2F2" stroke-width="0.254983" stroke-miterlimit="10"/>
<path d="M363.138 52.6002L363.234 89.0563C363.256 97.2374 356.517 103.858 348.142 103.88L294.52 104.022L294.288 16.326L306.873 16.2927L306.93 37.9176L347.967 37.809C356.342 37.7868 363.116 44.3713 363.138 52.5524L363.138 52.6002ZM350.553 52.6335C350.549 51.246 349.372 50.1488 348 50.1525L309.509 50.2543C308.089 50.2581 306.966 51.4093 306.969 52.7488L307.066 89.205C307.07 90.5924 308.248 91.6896 309.619 91.686L348.109 91.5841C349.53 91.5803 350.653 90.4292 350.649 89.0896L350.553 52.6335Z" fill="#F2F2F2" stroke="#F2F2F2" stroke-width="0.254983" stroke-miterlimit="10"/>
</svg>
